<svg width="802" height="361" viewBox="0 0 802 361" fill="none" xmlns="http://www.w3.org/2000/svg">
<rect width="802" height="361" rx="24" fill="#CDFF77"/>
<path d="M285.928 211V167.488H300.922L302.098 152.788H254.078V167.488H269.66V211H285.928ZM346.674 167.586L330.994 168.174V196.79C329.23 197.672 327.368 198.162 325.408 198.162C322.272 198.162 320.214 196.888 320.214 193.066V167.586L304.534 168.174V196.3C304.534 207.178 310.61 211.98 319.234 211.98C324.036 211.98 327.466 210.804 330.994 208.06V211H346.674V167.586ZM381.833 167.88H370.465V156.022L354.785 159.256V167.88H349.101V181.306H354.785V195.124C354.785 205.806 359.685 211.98 371.837 211.98C376.051 211.98 379.383 211.196 381.735 209.824L381.147 196.692C379.775 197.672 377.815 198.358 375.855 198.358C372.229 198.358 370.465 197.084 370.465 193.458V181.306H380.755L381.833 167.88ZM431.358 189.44C431.358 176.406 421.46 166.9 407.544 166.9C393.628 166.9 383.73 176.406 383.73 189.44C383.73 202.474 393.628 211.98 407.544 211.98C421.46 211.98 431.358 202.474 431.358 189.44ZM415.188 189.44C415.188 194.928 411.954 198.358 407.544 198.358C403.134 198.358 399.9 194.928 399.9 189.44C399.9 183.952 403.134 180.522 407.544 180.522C411.954 180.522 415.188 183.952 415.188 189.44ZM464.625 167.292C464.037 167.096 462.861 166.9 462.077 166.9C458.157 166.9 454.727 168.174 450.807 171.996V167.586L435.127 168.174V211H450.807V183.266C453.159 182.09 456.099 181.502 459.039 181.502C460.999 181.502 463.253 181.992 464.037 182.384L464.625 167.292ZM475.465 147.202C470.565 147.202 467.037 150.632 467.037 155.14C467.037 159.844 470.565 163.274 475.465 163.274C480.169 163.274 483.501 159.844 483.501 155.14C483.501 150.632 480.169 147.202 475.465 147.202ZM483.109 167.586L467.429 168.174V211H483.109V167.586ZM528.212 211V185.128C528.212 172.584 520.764 166.9 506.652 166.9C500.674 166.9 494.598 167.978 490.286 169.938L490.874 183.462C493.912 181.796 499.596 180.522 504.202 180.522C510.376 180.522 512.924 182.09 512.924 186.01V186.794C510.866 186.01 507.142 185.422 503.712 185.422C493.324 185.422 486.856 190.126 486.856 198.848C486.856 207.08 492.05 211.98 501.458 211.98C506.456 211.98 510.572 210.314 513.414 207.962V211H528.212ZM512.924 200.122C511.552 201.2 509.102 201.886 507.142 201.886C503.614 201.886 502.34 200.906 502.34 198.652C502.34 196.006 504.006 194.83 507.73 194.83C509.396 194.83 511.552 195.222 512.924 195.81V200.122ZM549.817 148.868L534.137 149.456V211H549.817V148.868Z" fill="black"/>
<path fill-rule="evenodd" clip-rule="evenodd" d="M361.481 84.624C367.086 89.8205 374.589 92.9972 382.834 92.9972C383.198 92.9972 383.56 92.9911 383.92 92.9788C384.613 91.4622 384.999 89.7762 384.999 88.0001C384.999 81.3727 379.626 76.0001 372.999 76.0001C367.544 76.0001 362.94 79.6402 361.481 84.624Z" fill="black"/>
<path fill-rule="evenodd" clip-rule="evenodd" d="M372.999 97.6C367.698 97.6 363.4 93.3019 363.4 88C363.4 82.6981 367.698 78.4 372.999 78.4C378.301 78.4 382.599 82.6981 382.599 88C382.599 93.3019 378.301 97.6 372.999 97.6ZM372.999 100C366.372 100 361 94.6274 361 88C361 81.3726 366.372 76 372.999 76C379.626 76 384.999 81.3726 384.999 88C384.999 94.6274 379.626 100 372.999 100Z" fill="black"/>
<path d="M408.728 85.4944C408.728 82.4992 406.636 80.56 403.583 80.56H393.024V94H396.479V90.4096H402.047L404.217 94H408.287L405.81 90.0064C407.615 89.296 408.728 87.6832 408.728 85.4944ZM396.479 83.4592H402.623C403.66 83.4592 405.273 83.4592 405.273 85.4944C405.273 87.5104 403.66 87.5104 402.623 87.5104H396.479V83.4592Z" fill="black"/>
<path d="M422.195 82.6912L417.779 92.0224L412.941 82.6912H409.293L415.149 94H416.838L414.554 98.8H418.182L425.823 82.6912H422.195Z" fill="black"/>
<path d="M432.871 91.5232C430.682 91.5232 428.954 90.928 428.59 89.1232H440.8C440.8 83.9776 437.363 82.4992 433.063 82.4992C428.474 82.4992 425.23 84.1888 425.23 88.3552C425.23 92.5024 428.57 94.192 432.871 94.192C437.056 94.192 439.859 92.8288 440.608 89.9488H437.344C436.519 91.1008 435.136 91.5232 432.871 91.5232ZM433.044 84.9952C435.117 84.9952 436.73 85.4368 437.287 87.0304H428.705C429.223 85.4368 430.797 84.9952 433.044 84.9952Z" fill="black"/>
</svg>
